<svg width="1440" height="960" viewBox="0 0 1440 960" fill="none" xmlns="http://www.w3.org/2000/svg">
  <rect width="1440" height="960" fill="#F6F1E8"/>
  <g opacity="0.44" stroke="#C8B8A6" stroke-width="1.2">
    <path d="M48 136C182 172 234 272 374 276C470 279 527 229 601 174C678 117 751 59 856 62C1004 66 1039 190 1174 205C1261 215 1341 181 1392 145"/>
    <path d="M58 324C180 289 248 158 392 156C490 155 559 218 629 272C726 348 810 423 948 413C1081 403 1138 306 1243 287C1300 277 1351 288 1400 314"/>
    <path d="M36 544C163 526 247 611 348 652C443 691 531 683 618 639C719 588 793 501 909 491C1052 479 1121 583 1248 621C1308 639 1357 636 1406 615"/>
    <path d="M72 794C208 745 291 634 424 623C532 614 613 665 698 715C788 768 876 815 985 796C1103 775 1160 671 1272 632C1320 615 1364 613 1406 618"/>
  </g>
  <g fill="#B35C2E">
    <circle cx="374" cy="276" r="6"/>
    <circle cx="601" cy="174" r="6"/>
    <circle cx="856" cy="62" r="6"/>
    <circle cx="1174" cy="205" r="6"/>
    <circle cx="392" cy="156" r="6"/>
    <circle cx="629" cy="272" r="6"/>
    <circle cx="948" cy="413" r="6"/>
    <circle cx="1243" cy="287" r="6"/>
    <circle cx="348" cy="652" r="6"/>
    <circle cx="618" cy="639" r="6"/>
    <circle cx="909" cy="491" r="6"/>
    <circle cx="1248" cy="621" r="6"/>
    <circle cx="424" cy="623" r="6"/>
    <circle cx="698" cy="715" r="6"/>
    <circle cx="985" cy="796" r="6"/>
    <circle cx="1272" cy="632" r="6"/>
  </g>
</svg>
